<svg aria-hidden="true" style="position:absolute;width:0;height:0;overflow:hidden" xmlns="http://www.w3.org/2000/svg">
  <defs>
    <symbol id="icon-logo-6" viewBox="0 0 32 32">
      <path  d="M16.121 15.215a.901.901 0 0 1-.181-.607v.003-.875c0-.242.06-.453.181-.604.121-.121.332-.211.604-.211.302 0 .513.06.604.181a.579.579 0 0 1 .181.513v.211h-.483v-.392c0-.06-.06-.091-.091-.121a.304.304 0 0 0-.363.001l.001-.001c-.06 0-.091.06-.091.121v1.268l.03.302.121.06.121.03c.06 0 .121 0 .181-.06l.06-.121v-.423h.513v.211c0 .181-.03.362-.151.543-.121.121-.302.181-.604.181s-.513-.06-.604-.211zm2.083 0c-.151-.121-.211-.302-.211-.604v-.906c0-.242.06-.453.211-.604.121-.091.302-.181.604-.181s.513.091.634.211c.121.121.181.302.181.604v.906c0 .242-.06.453-.181.604-.121.121-.332.181-.604.181-.302 0-.513-.06-.634-.211zm.845-.211.06-.272v-1.117c0-.091 0-.181-.06-.272l-.091-.06a.302.302 0 0 0-.153 0h.002a.284.284 0 0 0-.122 0h.002l-.091.06c-.06.091-.091.181-.06.272v1.117a.6.6 0 0 0 .06.302l.091.06a.369.369 0 0 0 .274-.001l-.002.001.091-.091zm1.177-2.023h.543l.392 1.66.423-1.691h.513l.03 2.445h-.362l-.06-1.691-.392 1.691h-.302l-.392-1.691-.091 1.691h-.392l.06-2.415zm2.506 0h.845c.483 0 .725.211.725.664s-.272.664-.755.664h-.302v1.087h-.513v-2.415zm.725 1.027h.151l.121-.091.091-.272-.03-.211-.03-.06-.091-.06c-.06-.03-.151-.06-.211-.03h-.211v.725h.211zm1.6-1.027h.513l.604 2.415h-.513l-.091-.574h-.513l-.121.574h-.483l.604-2.415zm.452 1.57-.211-1.026-.181 1.026h.392zm1.087-1.57h.362l.694 1.358v-1.358h.423v2.415h-.332l-.694-1.449v1.449h-.483v-2.415zm2.476 1.51-.574-1.509h.483l.362.936.302-.966h.483l-.574 1.509v.936h-.483v-.906zm-12.166 1.962v.151h-.392v.966h-.211v-.966h-.423v-.151h1.026zm1.328 1.117h-.211l-.121-.302h-.574l-.121.302h-.181l.513-1.117h.181l.513 1.117zm-.845-.362h.483l-.211-.453-.03-.121v.06l-.03.06-.211.453zm1.72.271h.091a.624.624 0 0 0 .185-.031l-.004.001.06-.03v-.272H19.2v-.091h.392v.423a.771.771 0 0 1-.328.12h-.155c-.091 0-.181 0-.272-.06a.602.602 0 0 1-.213-.092l.002.001-.121-.181-.06-.241c0-.091 0-.151.06-.241 0-.06.06-.121.121-.181.06-.03.121-.091.211-.091a.864.864 0 0 1 .426-.06h-.004a.7.7 0 0 1 .214.092l-.003-.002.091.06-.03.06h-.121l-.091-.06a.605.605 0 0 0-.209-.06h-.003a.61.61 0 0 0-.215.062l.003-.002-.151.06-.091.151v.392c0 .06.06.121.121.151a.452.452 0 0 0 .309.121l.025-.001h-.001zm1.631-.03h.574v.121h-.725v-1.117h.151v.996zm1.147.121h-.151v-1.117h.181v1.117zm.664-1.117v.03l.785.845v-.875h.151v1.117h-.151l-.755-.845v.875h-.151v-1.117h.091zm2.204 0v.121h-.604v.392h.483v.121h-.483v.362h.604v.121h-.785v-1.117h.785zM6.4 9.57l7.789 1.902v6.641L6.4 16.211V9.569zm-.513-.604v7.638l8.785 2.113V11.17L5.917 8.996z"/>
      <path  d="m10.596 22.249-8.785-2.143v-7.608l8.785 2.174v7.547zM6.038 9.479l7.668 1.872-3.26 2.838-7.668-1.902 3.26-2.808zm-.151-.483-4.075 3.502 8.785 2.174 4.075-3.532-8.755-2.143zm5.192 12.83 3.623-3.109-3.623-.875v3.985z"/>
    </symbol>
    <symbol id="icon-logo-5" viewBox="0 0 32 32">
      <path  d="M8.091 20.438c.06.091.091.211.091.302l-.03.211-.121.151c-.151.121-.332.151-.513.151h-.875v-1.872h.845c.181 0 .362.03.483.121l.121.151.06.211c0 .091-.03.211-.121.302l-.242.121c.121 0 .211.091.302.151zm-1.027-.272h.362c.06 0 .151 0 .211-.06l.06-.091.03-.091v-.091l-.091-.091c-.06-.06-.151-.06-.242-.06h-.332v.483zm.604.725.091-.091v-.211l-.06-.091c-.091-.06-.181-.06-.272-.06h-.362v.513h.362c.091 0 .181 0 .272-.06zm2.173.362-.483-.725h-.181v.725h-.423v-1.872h.785c.211 0 .392.06.543.151.121.121.181.241.181.392s-.03.302-.121.392a.821.821 0 0 1-.362.181l.513.755H9.84zm-.664-.996h.332c.242 0 .362-.091.362-.272l-.03-.121a.32.32 0 0 0-.06-.091l-.272-.091h-.332v.604zm2.898.634h-.815l-.151.362h-.423l.755-1.841h.453l.755 1.841h-.423l-.151-.362zm-.12-.302-.302-.785-.302.785h.604zm2.928.664h-.392l-.906-1.268v1.268h-.423v-1.872h.392l.906 1.268v-1.268h.423v1.872zm2.325-.423c-.06.121-.211.241-.362.302a1.22 1.22 0 0 1-.574.121h-.725v-1.872h.755c.211 0 .392.03.604.121.121.06.272.181.332.302a1.016 1.016 0 0 1-.003 1.001l.003-.005zm-.453-.06a.664.664 0 0 0-.001-.906.62.62 0 0 0-.513-.151h-.302v1.208h.302c.181 0 .362-.06.513-.151zM12.347 8.996s5.253 1.811 5.132 4.438v4.468s-5.253-1.811-5.132-4.468V8.996zm9.842 7.849a7.887 7.887 0 0 1 3.321-1.117v-1.389a6.801 6.801 0 0 0-3.307 2.485l-.014.021z"/>
      <path  d="M21.585 17.268c.815-1.509 2.234-2.657 3.925-3.23v-4.015s-7.487 2.596-7.336 6.34v6.34l.875-.332v-.604c.181-1.751 1.087-3.351 2.536-4.498z"/>
      <path  d="M20.86 19.623c.06-.423.121-.875.272-1.298a5.831 5.831 0 0 0-1.6 3.824v.01l1.449-.694c-.121-.604-.181-1.208-.121-1.811zm.302 0a5.722 5.722 0 0 0 .097 1.728l-.007-.037c2.053-1.117 4.347-2.868 4.257-4.951v-.181c-1.449.151-2.838.725-3.894 1.66a6.692 6.692 0 0 0-.453 1.811z"/>
    </symbol>
    <symbol id="icon-logo-4" viewBox="0 0 32 32">
      <path  d="M7.275 13.313c-.725 0-1.298.513-1.298 1.177 0 .634.604 1.147 1.298 1.147.725 0 1.328-.513 1.328-1.147 0-.664-.604-1.177-1.328-1.177zm9.691-.362c0-.906-.392-1.751-1.117-2.415-.694-.604-1.66-.966-2.687-.966-.996 0-1.962.362-2.687.996a3.216 3.216 0 0 0-1.087 2.385v4.921s7.547-.755 7.547-4.921zM3.321 19.472c0 .634.302 1.208.785 1.66.491.427 1.135.69 1.841.694h.001c.725 0 1.389-.241 1.872-.694.465-.397.764-.977.785-1.627v-3.446s-5.283.513-5.283 3.411zm2.626.603c-.121 0-.272 0-.362-.091a.593.593 0 0 1-.272-.272c-.03-.091-.06-.241-.03-.332 0-.121.091-.241.181-.302a.472.472 0 0 1 .362-.181h.392c.121.06.242.151.302.241a.571.571 0 0 1-.06.784l-.242.121-.272.06zm5.344-.301h-.513v.513h-.211v-1.268h.815v.241h-.574v.302h.513v.241zm1.268-.091c0 .121 0 .241-.06.302a.513.513 0 0 1-.468.302h-.016.001c-.091 0-.181 0-.302-.06l-.181-.211-.06-.332v-.06c0-.121 0-.241.06-.332a.513.513 0 0 1 .468-.302h.016-.001c.121 0 .211 0 .302.06.06.06.151.151.181.241.06.091.06.211.06.302v.091zm-.242-.06c0-.151-.03-.241-.091-.302a.242.242 0 0 0-.209-.121h-.002c-.091 0-.151.03-.211.121l-.06.302v.06c0 .121 0 .211.06.302.06.06.121.091.211.091s.181 0 .211-.091c.06-.06.06-.181.091-.302v-.06zm1.117.302s0-.06-.06-.091l-.181-.091a.338.338 0 0 1-.211-.091c-.151-.06-.242-.181-.242-.302l.06-.181c.06-.06.091-.121.181-.151l.242-.03.242.03.181.151.06.211h-.272c0-.06 0-.091-.06-.151a.241.241 0 0 0-.12-.032l-.032.002h.001l-.151.03-.06.121c0 .03 0 .06.06.091l.181.091a.68.68 0 0 1 .332.151c.091.091.121.151.121.272s-.06.181-.121.272a.647.647 0 0 1-.362.091c-.091 0-.181 0-.272-.06l-.181-.151-.06-.211h.272c0 .121.091.211.242.211.06 0 .121 0 .151-.06l.06-.091zm1.419-.695h-.392v1.057h-.272V19.23h-.392v-.241h1.057v.241zm.905.513h-.483v.332h.604v.211h-.906v-1.268h.906v.241h-.604v.302h.513v.211zm.725.061h-.181v.483h-.241v-1.268h.453c.181 0 .302.06.362.121.091.06.121.151.121.302 0 .06 0 .151-.06.211 0 .06-.091.091-.151.121l.272.543h-.302l-.241-.483zm-.181-.181h.241l.151-.03.03-.151-.03-.151-.181-.03h-.211v.362zm1.63.241v.453h-.302v-1.298h.543l.241.06.181.151.06.241c0 .121-.06.211-.151.302a.647.647 0 0 1-.362.091h-.211zm0-.211h.241c.06 0 .121 0 .151-.06l.06-.121c0-.06 0-.121-.06-.151a.211.211 0 0 0-.148-.06h-.244v.362zm1.66.121h-.513v.332h.604v.211h-.845v-1.298h.785v.241h-.604v.302h.513v.211zm1.238-.514h-.392v1.057h-.272V19.26h-.392v-.241h1.057v.241zm.906.514h-.483v.332h.604v.211h-.875v-1.298h.875v.241h-.604v.302h.483v.211zm.755.06h-.211v.483h-.302v-1.298h.513c.151 0 .272.06.332.121.091.06.121.151.121.302l-.03.211-.181.121.302.543h-.302l-.241-.483zm-.212-.211h.211l.151-.03.06-.151c0-.06 0-.121-.06-.151l-.151-.03h-.211v.362zm1.54.362-.03-.121-.211-.091c-.091 0-.151-.06-.211-.091a.314.314 0 0 1-.211-.302c0-.091 0-.151.06-.181 0-.06.091-.121.151-.151l.241-.03.272.03.151.151.06.211h-.272c0-.06 0-.091-.06-.151a.241.241 0 0 0-.12-.032l-.032.002h.001l-.151.03-.06.121.091.091.181.091c.151.03.241.091.302.151.091.091.121.151.121.272s-.03.181-.121.272c-.091.06-.211.091-.332.091s-.211 0-.302-.06l-.181-.151-.06-.211h.302c0 .121.06.211.241.211.06 0 .091 0 .151-.06l.03-.091z"/>
    </symbol>
    <symbol id="icon-logo-3" viewBox="0 0 32 32">
      <path  d="m10.989 21.766.091.06-.181.121-.272.06c-.091 0-.151 0-.242-.06l-.181-.091-.121-.181a.591.591 0 0 1 .002-.456l-.001.004.121-.181c.06-.03.121-.091.211-.091a.772.772 0 0 1 .489.002l-.006-.002.181.091-.06.06h-.091l-.03-.03a.449.449 0 0 0-.226-.061h-.016.001l-.181.03-.151.091c0 .06-.06.091-.091.151v.362l.091.121.151.091h.272a.396.396 0 0 0 .212-.091h-.001.03zm1.902-.332-.03.241-.151.181-.181.091a.752.752 0 0 1-.513 0 .594.594 0 0 1-.183-.092l.002.001-.121-.181a.591.591 0 0 1 .002-.456l-.001.004c0-.06.06-.121.121-.181l.181-.091a.752.752 0 0 1 .513 0l.181.091a.511.511 0 0 1 .182.392l-.001.032v-.001zm-.182 0v-.151a.365.365 0 0 0-.239-.241l-.003-.001a.577.577 0 0 0-.366.001l.004-.001-.151.091-.091.151v.332a.365.365 0 0 0 .239.241l.003.001h.362l.121-.091a.167.167 0 0 0 .091-.151l.03-.151zm1.48.211v.03l.03-.03v-.06l.453-.664h.211v1.057h-.151v-.845l-.423.664-.06.03h-.06l-.513-.694v.875h-.151v-1.057h.181l.423.664.03.06zm1.569-.06v.392h-.151V20.92h.574c.06 0 .091.06.151.091l.06.091.03.151v.121l-.121.121-.121.06-.211.03h-.211zm0-.121h.332l.091-.06.06-.06v-.211c0-.03 0-.06-.06-.091l-.211-.06h-.211v.453zm2.234.513h-.181l-.121-.302h-.574l-.121.302h-.181l.483-1.057h.181l.513 1.057zm-.815-.392h.453l-.181-.423-.06-.121v.121l-.211.423zm1.54-.664.725.815v-.815h.151v1.057h-.121l-.755-.845v.815h-.151v-1.057h.121zm2.083.634v.423h-.151v-.423l-.483-.634h.211l.302.453a.577.577 0 0 1 .029.086l.001.004.03-.06.03-.03.302-.423v-.03h.181l-.423.634zm-6.702-2.446h.242a6.078 6.078 0 0 0 2.676-2.007l.011-.015c.664-.906.996-1.932.966-3.019l-1.208-1.026a5.41 5.41 0 0 1-.376 3.385l.014-.034a6.381 6.381 0 0 1-2.301 2.702l-.024.015z"/>
      <path  d="M13.675 19.019v.03c1.147-.694 1.992-1.66 2.475-2.777s.543-2.355.211-3.502l-1.721-1.509c.544.929.866 2.047.866 3.239a6.469 6.469 0 0 1-1.834 4.521l.002-.002zm5.917-3.683a5.454 5.454 0 0 1-2.038 3.008l-.015.011-.996.604a6.042 6.042 0 0 0 2.306-1.156l-.011.009c.604-.513 1.147-1.147 1.449-1.841l-.694-.604z"/>
      <path  d="m19.321 15.185-1.026-.906c0 1.026-.332 1.992-.936 2.838s-1.449 1.54-2.475 2.023l.694-.03a6.325 6.325 0 0 0 2.415-1.57 5.127 5.127 0 0 0 1.291-2.319l.008-.035zm-5.495-4.559-1.208-1.057a5.678 5.678 0 0 0-2.649 1.801l-.008.01a4.499 4.499 0 0 0-.996 2.806v.001c0 1.117.423 2.174 1.208 3.019.785.906 1.902 1.509 3.109 1.811a6.378 6.378 0 0 0 1.827-4.478c0-1.468-.494-2.82-1.325-3.9l.011.015zm8.242 4.378c0-1.298-.604-2.566-1.66-3.472a6.157 6.157 0 0 0-4.022-1.485c-.722 0-1.415.124-2.059.351l.043-.013 7.336 6.4a4.592 4.592 0 0 0 .362-1.781z"/>
    </symbol>
    <symbol id="icon-logo-2" viewBox="0 0 32 32">
      <path  d="M15.128 8.734h-.039l-.19-.006h-.169a6.87 6.87 0 0 0-.381.01l.018-.001a8.53 8.53 0 0 0-3.173.809l-.13.063v6.684l.305-.103a10.184 10.184 0 0 1 3.284-.577h.006v.878l-.32.009h-.024a9.737 9.737 0 0 0-4.171 1.188l.051-.026V9.085a8.776 8.776 0 0 1 2.29-.941l.062-.013a8.778 8.778 0 0 1 2.211-.284h.131a6.38 6.38 0 0 1 1.593.206l-.044-.01v.866a6.508 6.508 0 0 0-1.046-.162l-.023-.001h-.021c-.075-.006-.151-.015-.22-.015zm1.521.884a9.521 9.521 0 0 0 2.986-.293l-.066.015a9.593 9.593 0 0 0 2.29-.897l-.05.025v8.42c-.677.402-1.46.73-2.289.943l-.062.014a9.141 9.141 0 0 1-2.213.284h-.051a6.765 6.765 0 0 1-1.677-.21l.047.01V9.455c.313.077.685.134 1.064.162l.022.001zm4.287.067-.305.103a10.14 10.14 0 0 1-3.403.576c-.191 0-.381-.005-.569-.015l.026.001-.248-.015v6.874l.211.018a8.115 8.115 0 0 0 2.653-.245l-.057.013a8.384 8.384 0 0 0 1.607-.586l-.05.022.133-.06V9.687zM10.789 20.592a.451.451 0 0 0-.324-.136h-.018.001a.553.553 0 0 0-.196.036.453.453 0 0 0-.286.444v-.001 1.147a.479.479 0 0 0 .16.386c.045.039.1.066.157.081s.115.024.172.024a.483.483 0 0 0 .474-.483v-.127h-.302v.1a.198.198 0 0 1-.015.103.187.187 0 0 1-.042.066.204.204 0 0 1-.124.042l-.02.001a.15.15 0 0 1-.121-.061.266.266 0 0 1-.042-.146V20.99a.36.36 0 0 1 .039-.169.15.15 0 0 1 .146-.069h-.001.005a.16.16 0 0 1 .127.063.24.24 0 0 1 .051.149v.105h.296v-.122a.543.543 0 0 0-.136-.359v.001zm1.779-.012a.533.533 0 0 0-.523-.093l.004-.001a.463.463 0 0 0-.275.254.51.51 0 0 0-.042.223v1.096a.531.531 0 0 0 .042.226c.027.06.066.112.118.151a.426.426 0 0 0 .157.1.524.524 0 0 0 .36-.001l-.004.001a.469.469 0 0 0 .318-.443l-.001-.032v.001V20.942a.494.494 0 0 0-.157-.362zm-.139 1.479.001.016a.196.196 0 0 1-.061.143.222.222 0 0 1-.281-.001.194.194 0 0 1-.06-.16v.001-1.096l-.001-.018c0-.056.023-.107.061-.142a.222.222 0 0 1 .281.001.194.194 0 0 1 .061.142l-.001.018v-.001 1.096zm2.475.492v-2.083h-.29l-.377 1.102h-.006l-.38-1.102h-.284v2.08h.296V21.28h.006l.29.897h.151l.293-.894h.003v1.265h.299zm1.688-1.932a.387.387 0 0 0-.169-.115.65.65 0 0 0-.207-.033h-.448v2.08h.296v-.815h.151a.523.523 0 0 0 .269-.054.5.5 0 0 0 .229-.338v-.003a1.483 1.483 0 0 0-.014-.541l.002.01a.439.439 0 0 0-.109-.193zm-.151.634a.273.273 0 0 1-.03.106c-.018.03-.042.06-.075.072a.298.298 0 0 1-.132.03H16.062v-.709h.151c.048 0 .091.006.136.027.03.015.054.042.069.075s.024.073.024.115v.284zm1.551-.782h-.241l-.453 2.08h.296l.088-.447h.401l.091.447h.293l-.468-2.08zm-.271 1.349.148-.755h.003l.145.755h-.296zm2.188-.096h-.006l-.447-1.253h-.284v2.08h.296v-1.25h.006l.45 1.25h.278v-2.083h-.296v1.253zm1.812-1.253-.241.827h-.003l-.241-.827h-.311l.408 1.201v.875h.296v-.875l.408-1.201h-.314zM9.962 23.137h.142v.401h.097v-.401h.142v-.081h-.38v.081zm1.202-.082-.187.483h.103l.039-.109h.193l.039.109h.106l-.19-.483h-.103zm-.015.293.063-.181.066.181h-.13zm1.198.012h.115v.06a.178.178 0 0 1-.115.042h-.008a.122.122 0 0 1-.094-.045.2.2 0 0 1-.037-.116v-.011.001c0-.106.045-.16.139-.16h.01c.047 0 .087.032.099.075v.001l.097-.018c-.021-.094-.091-.142-.205-.142h-.009a.239.239 0 0 0-.16.061.236.236 0 0 0-.069.188v-.001c0 .066.018.133.06.181a.234.234 0 0 0 .17.073h.014-.001a.301.301 0 0 0 .205-.078v-.19h-.211v.081zm1.214-.305h-.097v.483h.338v-.081h-.242v-.401zm1.026 0h-.1v.483h.1v-.483zm1.002.323-.199-.323h-.094v.483h.091v-.314l.193.314h.097v-.483h-.091v.323zm.906-.051h.241v-.081h-.241v-.109h.257v-.081h-.356v.483h.368v-.081h-.272v-.13zm2.195-.082h-.19v-.19h-.097v.483h.097v-.211h.19v.211h.097v-.483h-.097v.19zm.912.082h.241v-.081h-.241v-.109h.26v-.081h-.356v.483h.365v-.081h-.269v-.13zm1.234 0c.085-.015.127-.06.127-.136l.001-.014a.114.114 0 0 0-.046-.092.272.272 0 0 0-.142-.03h.001-.205v.483h.097v-.202h.018c.021 0 .042.003.06.012.015.009.03.021.036.036l.106.151h.115l-.06-.091a.309.309 0 0 0-.106-.121zm-.096-.067h-.072v-.121h.075a.28.28 0 0 1 .1.009.061.061 0 0 1 .025.049.06.06 0 0 1-.028.051.27.27 0 0 1-.082.013l-.018-.001h.001zm1.029.067h.241v-.081h-.241v-.109h.26v-.081h-.356v.483h.365v-.081h-.269v-.13z"/>
    </symbol>
    <symbol id="icon-logo-1" viewBox="0 0 32 32">
      <path  d="m11.472 9.057 2.113 2.002H9.66v9.712h10.264v-3.713l2.113 1.998V9.058H11.471zm8.362 7.767-6.005-5.678h6.005v5.675zm-1.866 2.53h-6.684v-6.536h.474v6.092h6.21v.444zm-5.105 2.714-.248.507-.248-.507h-.205l.362.679v.392h.184v-.392l.362-.679h-.211zm.311 1.072.085-.248h.417l.091.248h.193l-.408-1.072h-.166l-.408 1.072h.196zm.293-.846.157.447h-.311l.154-.447zm.984.423a.236.236 0 0 0-.039.132v.001c0 .091.03.166.094.22.063.057.151.085.257.085s.196-.03.272-.085l.06.069h.211l-.16-.184a.551.551 0 0 0 .091-.326h-.151a.42.42 0 0 1-.048.196l-.205-.241.072-.057a.35.35 0 0 0 .112-.112.235.235 0 0 0-.042-.292.273.273 0 0 0-.182-.07H14.767a.285.285 0 0 0-.191.073.262.262 0 0 0-.076.185v.015-.001c0 .036.009.072.024.109s.045.081.088.133a.647.647 0 0 0-.159.149l-.001.002zm.483.235a.27.27 0 0 1-.169.06h-.009a.173.173 0 0 1-.118-.046.16.16 0 0 1-.048-.115v-.006c0-.06.03-.109.091-.154l.021-.018.232.278zm-.19-.477c-.051-.06-.075-.112-.075-.154 0-.036.009-.066.03-.091a.103.103 0 0 1 .077-.033h.005c.033 0 .06.009.082.03.021.018.03.042.03.069a.14.14 0 0 1-.045.106l-.021.018-.082.054zm1.745.586a.382.382 0 0 0 .127-.272h-.184c-.009.078-.033.133-.069.166-.039.033-.091.048-.166.048h-.009a.21.21 0 0 1-.172-.09v-.001a.469.469 0 0 1-.063-.266v-.094c0-.115.021-.202.066-.26a.216.216 0 0 1 .187-.091c.069 0 .121.018.157.051s.06.091.069.166h.184a.402.402 0 0 0-.124-.272.413.413 0 0 0-.266-.097l-.022.001h.001a.442.442 0 0 0-.232.06.413.413 0 0 0-.154.181.616.616 0 0 0-.054.266v.103c0 .097.018.184.054.26s.085.133.151.172c.066.042.142.06.226.06a.43.43 0 0 0 .293-.094zm1.096-.151a.673.673 0 0 0 .054-.278v-.06a.628.628 0 0 0-.054-.272.412.412 0 0 0-.377-.248h-.016.001c-.085 0-.163.021-.229.063s-.121.106-.157.184a.673.673 0 0 0-.057.278v.06c0 .103.021.193.057.272s.091.139.157.181a.442.442 0 0 0 .232.063.461.461 0 0 0 .235-.06.421.421 0 0 0 .154-.184zm-.199-.607c.045.06.069.154.069.272v.057a.47.47 0 0 1-.069.275.218.218 0 0 1-.179.094h-.012.001-.008a.222.222 0 0 1-.181-.093v-.001a.463.463 0 0 1-.07-.247l.001-.029v.001-.06c0-.118.024-.205.069-.272a.222.222 0 0 1 .178-.091h.012-.001c.081 0 .145.03.19.091z"/>
    </symbol>
    <symbol id="icon-linkedin" viewBox="0 0 32 32">
      <path  d="M32 32V20.32c0-5.76-1.28-10.24-8-10.24-3.2 0-5.28 1.76-6.24 3.52v-3.04H11.2V32h6.56V21.44c0-2.88.48-5.44 4-5.44 3.36 0 3.52 3.2 3.52 5.6V32H32zM.48 10.56H7.2V32H.48V10.56zM3.84 0C1.76 0 0 1.6 0 3.84c0 2.08 1.6 3.84 3.84 3.84a3.84 3.84 0 1 0 0-7.68z"/>
    </symbol>
    <symbol id="icon-facebook" viewBox="0 0 32 32" >
      <path  d="M21.28 5.28h3.04V.16L20 0c-4.16 0-7.04 2.72-7.04 7.52V12H8v5.76h4.8V32h5.6V17.6h4.48l.8-5.6H18.4V8.16c0-1.6.48-2.88 2.72-2.88z"/>
    </symbol>
    <symbol id="icon-instagram" viewBox="0 0 32 32">
      <path  d="M31.968 9.408a11.64 11.64 0 0 0-.763-3.968l.027.08a7.858 7.858 0 0 0-1.854-2.83l-.002-.002c-.8-.8-1.76-1.44-2.832-1.84a11.483 11.483 0 0 0-3.875-.752h-.013c-1.458-.07-3.167-.109-4.885-.109-.6 0-1.199.005-1.797.014l.09-.001c-4.352 0-4.896.016-6.592.096C7.76.16 6.592.448 5.584.832a7.992 7.992 0 0 0-2.832 1.856c-.816.8-1.44 1.76-1.856 2.832A11.473 11.473 0 0 0 .16 9.397v.011c-.07 1.458-.109 3.167-.109 4.885 0 .6.005 1.199.014 1.797L.064 16c0 4.352 0 4.896.08 6.592.03 1.405.303 2.737.779 3.968l-.027-.08a7.782 7.782 0 0 0 1.856 2.832c.8.816 1.76 1.44 2.832 1.856 1.008.384 2.176.656 3.872.736 1.712.08 2.24.096 6.592.096s4.896-.016 6.608-.096a11.648 11.648 0 0 0 3.952-.763l-.08.027a8.242 8.242 0 0 0 4.669-4.633l.019-.055c.384-1.024.672-2.176.736-3.888.08-1.696.096-2.24.096-6.592 0-4.336 0-4.88-.08-6.592zm-2.88 13.072c-.064 1.552-.32 2.4-.544 2.96a5.34 5.34 0 0 1-3.004 3.027l-.036.013c-.56.224-1.424.48-2.976.544-1.68.08-2.192.096-6.464.096a114.015 114.015 0 0 1-6.706-.105l.242.009c-1.568-.064-2.4-.32-2.96-.544a4.96 4.96 0 0 1-1.839-1.199L4.8 27.28a4.975 4.975 0 0 1-1.189-1.79l-.011-.034a8.64 8.64 0 0 1-.544-2.972v-.004a108.653 108.653 0 0 1-.095-6.546l-.001.083c0-4.272.016-4.784.096-6.464.064-1.568.32-2.4.544-2.976a4.774 4.774 0 0 1 1.2-1.824 4.98 4.98 0 0 1 1.806-1.189l.034-.011c.56-.224 1.408-.48 2.976-.544 1.68-.08 2.192-.096 6.448-.096 4.288 0 4.8 0 6.464.096 1.568.064 2.4.32 2.976.544a4.831 4.831 0 0 1 1.84 1.2 4.966 4.966 0 0 1 1.2 1.824c.208.576.48 1.424.544 2.976.08 1.68.096 2.192.096 6.464s-.016 4.768-.096 6.464z"/>
      <path  d="M16.064 7.776a8.224 8.224 0 1 0 0 16.448 8.224 8.224 0 1 0 0-16.448zm0 13.552a5.327 5.327 0 1 1 0-10.656 5.327 5.327 0 1 1 0 10.656zM26.528 7.456a1.92 1.92 0 0 1-3.84 0 1.92 1.92 0 0 1 3.84 0z"/>
    </symbol>
    <symbol id="icon-twitter" viewBox="0 0 32 32">
      <path  d="M32 6.08c-1.12.48-2.4.8-3.84.96a6.441 6.441 0 0 0 2.867-3.475l.013-.045c-1.28.8-2.56 1.28-4.16 1.6a6.56 6.56 0 0 0-11.192 5.965l-.009-.044c-5.44-.32-10.24-2.88-13.44-6.88a6.487 6.487 0 0 0-.894 3.307 6.554 6.554 0 0 0 2.95 5.478l.025.015a6.375 6.375 0 0 1-3.072-.817l.032.017c0 3.2 2.24 5.92 5.28 6.4a6.43 6.43 0 0 1-3.081.153l.04.007c.96 2.72 3.2 4.64 6.24 4.64a13.036 13.036 0 0 1-8.129 2.822c-.575 0-1.141-.037-1.697-.109l.066.007c2.88 1.92 6.4 2.72 10.08 2.72h.011c10.25 0 18.56-8.31 18.56-18.56 0-.225-.004-.449-.012-.672l.001.032c1.44-.96 2.4-2.08 3.36-3.36z"/>
    </symbol>
    <symbol id="icon-astronaut" viewBox="0 0 32 32">
      <path fill="#2196f3" style="fill:var(--color2, #2196f3)" d="M32 4.526a.726.726 0 0 0-.457-.366l-1.92-.274-.823-1.737c-.183-.366-.777-.366-.96 0l-.914 1.737-1.829.274a.55.55 0 0 0-.319.914l1.371 1.371-.32 1.874c-.002.015-.002.033-.002.051a.55.55 0 0 0 .783.497l-.003.001 1.691-.914 1.691.914a.55.55 0 0 0 .777-.551v.002l-.32-1.92 1.371-1.371c.183-.091.229-.32.137-.503zm-2.469 1.325a.655.655 0 0 0-.183.457l.183 1.143-1.006-.549a.543.543 0 0 0-.461.001l.003-.001-1.006.549.183-1.143c0-.137 0-.32-.137-.457l-.823-.777 1.097-.183c.183 0 .32-.137.457-.274l.457-1.006.503.96c.091.137.229.274.411.274l1.097.183-.777.777zm-3.382 14.675h-1.097v1.051h1.097v-1.006zm0 2.148h-1.097v1.051h1.097v-1.051zm1.051-1.097h-1.051v1.097H27.2v-1.097zm-2.149 0H24v1.097h1.051v-1.097zm-2.651 4.8h-1.051v1.097H22.4v-1.097zm0 2.149h-1.051v1.051H22.4v-1.051zm1.051-1.097H22.4v1.097h1.051v-1.097zm-2.102 0h-1.097v1.097h1.097v-1.097zM16 24.229h-1.051v1.097H16v-1.097zm0 2.148h-1.051v1.097H16v-1.097zm1.051-1.051H16v1.051h1.051v-1.051zm-2.102 0h-1.097v1.051h1.097v-1.051zm-9.098-19.2H4.8v1.051h1.051V6.126zm0 2.103H4.8v1.097h1.051V8.229zM6.949 7.177H5.852v1.097h1.097V7.177zm-2.149 0H3.749v1.097H4.8V7.177z"/>
      <path fill="#212121" style="fill:var(--color3, #212121)" d="M24.686 14.171a1.789 1.789 0 0 0-1.132-.73l-.011-.002c-.457-.046-.96.091-1.371.366l-1.234.96-1.92 1.417-1.371-.549c2.403-1.128 4.037-3.528 4.037-6.309a6.949 6.949 0 0 0-6.867-6.948h-.004A6.95 6.95 0 0 0 9.023 13.1l-.016-.027H5.944l-3.2 1.646-1.92.914H.733a1.784 1.784 0 1 0 1.837 3.058l-.008.004 1.371-.731 2.286-1.143H7.59L2.196 22.17.825 23.541c-.286.296-.462.699-.462 1.143s.176.847.462 1.143c.3.313.722.507 1.189.507s.889-.194 1.188-.507l.001-.001 1.371-1.28 1.691-1.28.914.914-1.783 1.737-1.28 1.371c-.299.298-.484.71-.484 1.166s.185.868.484 1.166c.305.302.725.488 1.189.488s.883-.186 1.189-.488l3.428-3.428 1.006-.96 5.166-5.714 3.474.503a.493.493 0 0 0 .278-.001l-.004.001.046-.046h.046l3.2-2.149.046-.046h.046l1.28-1.234c.345-.326.559-.786.559-1.297a1.78 1.78 0 0 0-.334-1.04l.004.005zM2.194 17.783c-.183.091-.366.091-.594 0a.733.733 0 0 1-.184-1.233l.001-.001 1.28-.64.32.914.137.457-.96.457zm3.475-1.829-1.554.777L3.841 16l-.183-.549 2.011-1.006v1.554zm15.085-6.628c0 .914-.183 1.783-.594 2.56L16 9.966a1.83 1.83 0 0 0-.771-1.368l-.006-.004 1.463-4.846A5.858 5.858 0 0 1 20.8 9.325zm-11.748 0a5.899 5.899 0 0 1 6.564-5.804l-.027-.002-1.417 4.709a1.83 1.83 0 0 0-1.92 1.827v.002a1.83 1.83 0 0 0 3.516.928l.004-.012 3.84 1.783A5.898 5.898 0 0 1 8.96 9.286v-.004zm5.943.777c0 .457-.366.823-.823.823s-.777-.366-.777-.823.32-.777.777-.777.823.366.823.777zM2.514 25.189c-.229.183-.64.183-.869 0a.596.596 0 0 1-.001-.913l.001-.001.96-.914.869.823-1.006.96zm3.2 3.657a.515.515 0 0 1-.823 0 .595.595 0 0 1 .001-.823l.914-.914.457.366.457.457-1.006.914zm3.475-3.429-1.737 1.737-.457-.366-.411-.457 1.783-1.783.091-.137v-.183l.046-.091v-.183l-.137-.137v-.046l-1.6-1.6h-.091l-.091-.091h-.091l-.091-.046H6.22l-.091.046h-.183l-1.737 1.371-.914-.914 2.377-2.377 4.389 4.297-.914.914zm6.857-7.04H16a.5.5 0 0 0-.411.137v.046l-4.8 5.211-4.343-4.251 2.834-2.834a.549.549 0 0 0-.364-.914H6.674v-1.6h3.109a6.93 6.93 0 0 0 5.003 2.127c.445 0 .881-.042 1.303-.122l-.043.007.137.091 2.423.914.137.777.183.914-2.971-.457zm4.023.183-.32-1.554 1.463-1.051.366.457.549.777-2.057 1.371zm3.748-2.834-.823.823-.914-1.28.823-.594c.137-.137.32-.183.503-.183a.733.733 0 0 1 .457 1.235z"/>
      <path fill="#212121" style="fill:var(--color3, #212121)" d="m13.623 18.56-2.194-2.149a.525.525 0 0 0-.777 0L8.503 18.56a.546.546 0 0 0 0 .732l2.149 2.149a.551.551 0 0 0 .778 0l2.149-2.149a.546.546 0 0 0 0-.732zm-2.56 1.737-1.371-1.371 1.371-1.371 1.371 1.371-1.371 1.371zm6.08-15.268-.229 1.097c.046 0 1.737.457 1.737 2.149h1.006c0-2.057-1.646-2.971-2.56-3.2zm2.56 4.297h-1.051v1.051h1.006V9.326z"/>
    </symbol>
    <symbol id="icon-diagram" viewBox="0 0 32 32">
      <path fill="#2196f3" style="fill:var(--color2, #2196f3)" d="M14.903 14.949H16v4.8h-1.097v-4.8zm4.297 2.148h1.051v2.651H19.2v-2.651zm-8.549 1.6h1.097v1.051h-1.097v-1.006zm-3.2-.548h1.097v1.6H7.451v-1.6z"/>
      <path fill="#212121" style="fill:var(--color3, #212121)" d="M1.6 28.297h25.6c.869 0 1.6-.731 1.6-1.6v-2.149c0-.914-.731-1.6-1.6-1.6h-.549V9.691l3.017-2.88a1.6 1.6 0 1 0-.727-.767l-.004-.01-2.286 2.149V6.949c0-.869-.731-1.6-1.6-1.6H3.748c-.914 0-1.6.731-1.6 1.6v16h-.549c-.914 0-1.6.731-1.6 1.6v2.149c0 .914.731 1.6 1.6 1.6zM30.4 4.846a.55.55 0 1 1-.004 1.051l.004.001a.55.55 0 0 1-.004-1.051l.004-.001zM3.2 6.949c0-.274.229-.503.549-.503h21.303c.274 0 .549.229.549.503v2.286l-1.097 1.006V8.047c0-.32-.229-.549-.503-.549h-19.2a.557.557 0 0 0-.549.549V21.35c0 .32.274.549.549.549h19.2c.274 0 .503-.229.503-.549v-9.646l1.097-1.006v12.251h-22.4v-16zM8 13.897h-.022a1.6 1.6 0 1 0 1.12 2.743l1.829.914a.556.556 0 0 0 .686-.091l3.931-4.434 3.84 2.88a.55.55 0 0 0 .686 0l3.383-3.2v8.137H5.35V8.549h18.103v2.697l-3.749 3.566-3.931-2.926a.554.554 0 0 0-.731.046l-3.977 4.526-1.463-.777v-.137c0-.914-.686-1.6-1.554-1.6zm.549 1.6a.55.55 0 0 1-1.098 0 .55.55 0 0 1 1.098 0zm3.2 8.549h5.303v.503c0 .32-.229.549-.549.549h-4.251c-.274 0-.503-.229-.503-.549v-.503zm-10.698.503c0-.274.274-.503.549-.503h9.051v.503c0 .914.731 1.6 1.6 1.6h4.251c.914 0 1.6-.686 1.6-1.6v-.503h9.097c.274 0 .503.229.503.503v2.149c0 .274-.229.549-.503.549h-25.6c-.274 0-.549-.274-.549-.549v-2.149z"/>
    </symbol>
    <symbol id="icon-clock" viewBox="0 0 32 32">
      <path fill="#212121" style="fill:var(--color3, #212121)" d="M31.314 15.314v-.016C31.314 6.84 24.458-.016 16-.016S.686 6.84.686 15.298c0 6.859 4.51 12.665 10.726 14.615l.108.029c.137 0 .229-.046.366-.137.137-.046.229-.183.274-.366L16 17.233a1.92 1.92 0 1 0-.834-3.652l.012-.005-5.12-5.12a.645.645 0 0 0-1.103.457c0 .179.072.34.189.457l5.12 5.12a1.87 1.87 0 0 0 .545 2.282l.004.003-3.657 11.703c-5.431-2.02-9.229-7.159-9.229-13.186 0-7.751 6.283-14.034 14.034-14.034s14.034 6.283 14.034 14.034c0 5.684-3.379 10.578-8.237 12.785l-.088.036-.366-1.874a.642.642 0 0 0-1.053-.365l.001-.001-3.84 3.429a.639.639 0 0 0 .224 1.095l.005.001 4.891 1.6a.64.64 0 0 0 .823-.736l.001.004-.366-1.829c5.527-2.379 9.326-7.778 9.326-14.065v-.016.001zM16 14.629a.64.64 0 0 1 0 1.28.64.64 0 0 1 0-1.28zm2.103 14.857 2.194-1.966.594 2.834-2.789-.914z"/>
      <path fill="#2196f3" style="fill:var(--color2, #2196f3)" d="M15.36 3.2v1.28a.64.64 0 0 0 1.28 0V3.2a.64.64 0 0 0-1.28 0zM3.886 14.629a.663.663 0 0 0 0 1.326h1.28a.64.64 0 0 0 0-1.28h-1.28zm24.228 1.325a.64.64 0 0 0 0-1.28h-1.28a.64.64 0 0 0 0 1.28h1.28z"/>
    </symbol>
    <symbol id="icon-antenna" viewBox="0 0 32 32">
      <path fill="#212121" style="fill:var(--color3, #212121)" d="m30.766 22.08-8.457-8.503.96-4.571c.229.046.457.137.777.137h.025a2.149 2.149 0 1 0-2.032-1.448l-.005-.015-4.983.594L8.96.137C8.869.046 8.731 0 8.594 0s-.274.046-.366.137L6.719 1.646a.525.525 0 0 0 0 .777l.823.777c-1.129 2.053-1.794 4.499-1.794 7.1a14.9 14.9 0 0 0 4.444 10.635l.002.002-.046.549v6.217H3.702a2.651 2.651 0 0 0-2.651 2.651v1.051c0 .32.274.549.549.549h24.549c.274 0 .503-.229.503-.549v-1.051a2.653 2.653 0 0 0-2.651-2.651h-6.4V24.96c.899.191 1.932.3 2.991.3 2.586 0 5.02-.653 7.146-1.803l-.08.039.869.823c.091.091.229.137.366.137s.274-.046.366-.137l1.509-1.509a.525.525 0 0 0 0-.777zM23.314 6.217a1.05 1.05 0 1 1 .781 1.828h-.003c-.021.002-.046.002-.072.002a1.05 1.05 0 0 1-.706-1.83l.001-.001zm-1.234 3.52-.594 2.926-1.189-1.143 1.783-1.783zm-.594-.914-1.92 1.92-1.509-1.509 3.429-.411zM24 28.8c.914 0 1.6.731 1.6 1.6v.549H2.149V30.4c0-.914.686-1.6 1.6-1.6H24zm-7.451-2.149v1.097H11.2v-1.097h5.349zM11.2 25.6v-4.069c0-1.28 1.189-2.331 2.651-2.331 1.509 0 2.697 1.051 2.697 2.331V25.6h-5.349zm6.4-1.691v-2.423c0-1.829-1.691-3.383-3.749-3.383-1.326 0-2.56.64-3.246 1.783a13.8 13.8 0 0 1-3.827-9.559c0-2.319.57-4.505 1.578-6.426l-.036.076L26.926 22.72c-1.816.94-3.965 1.492-6.242 1.492a13.86 13.86 0 0 1-3.177-.367l.094.019zm11.291-.686-.731-.823L8.594 2.743l-.823-.686.777-.777 7.909 8L29.714 22.4l-.777.777z"/>
      <path fill="#2196f3" style="fill:var(--color2, #2196f3)" d="M13.897 20.251a1.6 1.6 0 1 0 0 3.2 1.6 1.6 0 1 0 0-3.2zm.366 2.012a.55.55 0 1 1-.412-.915h.003a.55.55 0 0 1 .409.915z"/>
    </symbol>
    <symbol id="icon-phone" viewBox="0 0 32 32">
      <path  d="M23 0H9C7.4 0 6 1.4 6 3v26c0 1.6 1.4 3 3 3h14c1.6 0 3-1.4 3-3V3c0-1.6-1.4-3-3-3zM9 2h14c.6 0 1 .4 1 1v21H8V3c0-.6.4-1 1-1zm14 28H9a1 1 0 0 1-1-1v-3h16v3c0 .6-.4 1-1 1z"/>
    </symbol>
    <symbol id="icon-envelope" viewBox="0 0 32 32">
      <path  d="M29 4H3C1.34 4 0 5.34 0 7v18c0 1.66 1.34 3 3 3h26c1.66 0 3-1.34 3-3V7c0-1.66-1.34-3-3-3zm0 2h.008c.142 0 .276.029.398.083L29.4 6.08 16 17.68 2.6 6.08A.977.977 0 0 1 2.992 6H29zm0 20H3a1 1 0 0 1-1-1V8.2l13.34 11.56a.998.998 0 0 0 1.321-.001l-.001.001L30 8.2V25a1 1 0 0 1-1 1z"/>
    </symbol>
  </defs>
</svg>
